<svg width="14" height="13" viewBox="0 0 14 13" fill="none" xmlns="http://www.w3.org/2000/svg">
<path d="M13.053 3.16657C12.9378 2.96698 12.7729 2.80066 12.5742 2.68382C12.3756 2.56698 12.1501 2.50361 11.9197 2.4999H3.38634L2.99967 0.993236C2.96061 0.847795 2.87345 0.719865 2.75239 0.630284C2.63134 0.540703 2.48352 0.494747 2.33301 0.499903H0.999674C0.822863 0.499903 0.653294 0.570141 0.52827 0.695165C0.403246 0.820189 0.333008 0.989758 0.333008 1.16657C0.333008 1.34338 0.403246 1.51295 0.52827 1.63797C0.653294 1.763 0.822863 1.83324 0.999674 1.83324H1.82634L3.66634 8.67324C3.70541 8.81868 3.79257 8.94661 3.91362 9.03619C4.03468 9.12577 4.1825 9.17173 4.33301 9.16657H10.333C10.4561 9.1662 10.5767 9.13174 10.6815 9.06702C10.7862 9.0023 10.8709 8.90985 10.9263 8.7999L13.113 4.42657C13.2078 4.22791 13.2519 4.00888 13.2414 3.78903C13.231 3.56917 13.1662 3.35532 13.053 3.16657Z" fill="white"/>
<path d="M4 12.5C4.55228 12.5 5 12.0523 5 11.5C5 10.9477 4.55228 10.5 4 10.5C3.44772 10.5 3 10.9477 3 11.5C3 12.0523 3.44772 12.5 4 12.5Z" fill="white"/>
<path d="M10.666 12.5C11.2183 12.5 11.666 12.0523 11.666 11.5C11.666 10.9477 11.2183 10.5 10.666 10.5C10.1137 10.5 9.66602 10.9477 9.66602 11.5C9.66602 12.0523 10.1137 12.5 10.666 12.5Z" fill="white"/>
</svg>
